# exported by https://3dviewer.net
mtllib model.mtl
g Cube.097
v 0.014872885309159756 0.011668063700199127 0.12126890569925308
v 0.014872885309159756 0.011668063700199127 0.12126890569925308
v -0.014872890897095203 0.011668063700199127 0.12126890569925308
v -0.014872890897095203 0.011668063700199127 0.12126890569925308
v -0.014872893691062927 0.011668063700199127 0.19060222804546356
v -0.014872893691062927 0.011668063700199127 0.19060222804546356
v -0.014872893691062927 0.011668063700199127 0.19060222804546356
v 0.014872882515192032 0.011668063700199127 0.19060222804546356
v 0.014872882515192032 0.011668063700199127 0.19060222804546356
v 0.014872882515192032 0.011668063700199127 0.19060222804546356
v 0.014872885309159756 -0.00319509650580585 0.12126890569925308
v 0.014872885309159756 -0.00319509650580585 0.12126890569925308
v 0.009141462855041027 -0.008452334441244602 0.12126890569925308
v 0.009141462855041027 -0.008452334441244602 0.12126890569925308
v 0.0131941894069314 -0.006912508979439735 0.12126890569925308
v 0.0131941894069314 -0.006912508979439735 0.12126890569925308
v -0.009141468442976475 -0.008452334441244602 0.12126890569925308
v -0.009141468442976475 -0.008452334441244602 0.12126890569925308
v -0.014872890897095203 -0.00319509650580585 0.12126890569925308
v -0.014872890897095203 -0.00319509650580585 0.12126890569925308
v -0.013194194994866848 -0.006912508979439735 0.12126890569925308
v -0.013194194994866848 -0.006912508979439735 0.12126890569925308
v -0.009141471236944199 -0.008452334441244602 0.18534497916698456
v -0.009141471236944199 -0.008452334441244602 0.18534497916698456
v -0.009141471236944199 -0.008452334441244602 0.18534497916698456
v -0.014872893691062927 -0.00319509650580585 0.19060222804546356
v -0.014872893691062927 -0.00319509650580585 0.19060222804546356
v -0.014872893691062927 -0.00319509650580585 0.19060222804546356
v -0.014872893691062927 -0.00319509650580585 0.19060222804546356
v -0.01319420337677002 -0.006912508979439735 0.1890624314546585
v -0.01319420337677002 -0.006912508979439735 0.1890624314546585
v -0.01319420337677002 -0.006912508979439735 0.1890624314546585
v -0.01319420337677002 -0.006912508979439735 0.1890624314546585
v 0.009141460061073303 -0.008452334441244602 0.18534497916698456
v 0.009141460061073303 -0.008452334441244602 0.18534497916698456
v 0.009141460061073303 -0.008452334441244602 0.18534497916698456
v 0.014872882515192032 -0.00319509650580585 0.19060222804546356
v 0.014872882515192032 -0.00319509650580585 0.19060222804546356
v 0.014872882515192032 -0.00319509650580585 0.19060222804546356
v 0.014872882515192032 -0.00319509650580585 0.19060222804546356
v 0.013194192200899124 -0.006912508979439735 0.1890624314546585
v 0.013194192200899124 -0.006912508979439735 0.1890624314546585
v 0.013194192200899124 -0.006912508979439735 0.1890624314546585
v 0.013194192200899124 -0.006912508979439735 0.1890624314546585
v -0.01594700664281845 -0.15749004483222961 -0.17117750644683838
v -0.01594700664281845 -0.15749004483222961 -0.17117750644683838
v -0.01594700664281845 -0.15749004483222961 -0.17117750644683838
v -0.01594700664281845 -0.09237737208604813 -0.14336305856704712
v -0.01594700664281845 -0.09237737208604813 -0.14336305856704712
v -0.01594700664281845 -0.09237737208604813 -0.14336305856704712
v 0.015947025269269943 -0.15749004483222961 -0.17117750644683838
v 0.015947025269269943 -0.15749004483222961 -0.17117750644683838
v 0.015947025269269943 -0.15749004483222961 -0.17117750644683838
v 0.015947025269269943 -0.09237737208604813 -0.14336305856704712
v 0.015947025269269943 -0.09237737208604813 -0.14336305856704712
v 0.015947025269269943 -0.09237737208604813 -0.14336305856704712
v -0.01594701036810875 -0.17258930206298828 -0.07586632668972015
v -0.01594701036810875 -0.17258930206298828 -0.07586632668972015
v -0.01594701036810875 -0.17258930206298828 -0.07586632668972015
v -0.01594701036810875 -0.09237737208604813 -0.055601511150598526
v -0.01594701036810875 -0.09237737208604813 -0.055601511150598526
v -0.01594701036810875 -0.09237737208604813 -0.055601511150598526
v 0.015947021543979645 -0.17258930206298828 -0.07586632668972015
v 0.015947021543979645 -0.17258930206298828 -0.07586632668972015
v 0.015947021543979645 -0.17258930206298828 -0.07586632668972015
v 0.015947021543979645 -0.09237737208604813 -0.055601511150598526
v 0.015947021543979645 -0.09237737208604813 -0.055601511150598526
v 0.015947021543979645 -0.09237737208604813 -0.055601511150598526
v -0.0159470085054636 -0.037940554320812225 -0.1250849962234497
v -0.0159470085054636 -0.037940554320812225 -0.1250849962234497
v -0.0159470085054636 -0.037940554320812225 -0.1250849962234497
v 0.015947025269269943 -0.037940554320812225 -0.1250849962234497
v 0.015947025269269943 -0.037940554320812225 -0.1250849962234497
v 0.015947025269269943 -0.037940554320812225 -0.1250849962234497
v -0.0159470122307539 -0.037940554320812225 -0.03613140061497688
v -0.0159470122307539 -0.037940554320812225 -0.03613140061497688
v -0.0159470122307539 -0.037940554320812225 -0.03613140061497688
v 0.015947019681334496 -0.037940554320812225 -0.03613140061497688
v 0.015947019681334496 -0.037940554320812225 -0.03613140061497688
v 0.015947019681334496 -0.037940554320812225 -0.03613140061497688
v -0.01594700664281845 -0.011336554773151875 -0.16005173325538635
v -0.01594700664281845 -0.011336554773151875 -0.16005173325538635
v -0.01594700664281845 -0.011336554773151875 -0.16005173325538635
v 0.015947025269269943 -0.011336554773151875 -0.16005173325538635
v 0.015947025269269943 -0.011336554773151875 -0.16005173325538635
v 0.015947025269269943 -0.011336554773151875 -0.16005173325538635
v -0.0159470085054636 0.011330738663673401 -0.1250849962234497
v -0.0159470085054636 0.011330738663673401 -0.1250849962234497
v -0.0159470085054636 0.011330738663673401 -0.1250849962234497
v 0.015947025269269943 0.011330738663673401 -0.1250849962234497
v 0.015947025269269943 0.011330738663673401 -0.1250849962234497
v 0.015947025269269943 0.011330738663673401 -0.1250849962234497
v -0.0159470122307539 0.011330738663673401 -0.018648037686944008
v -0.0159470122307539 0.011330738663673401 -0.018648037686944008
v 0.015947019681334496 0.011330738663673401 -0.018648037686944008
v 0.015947019681334496 0.011330738663673401 -0.018648037686944008
v -0.015947019681334496 0.011330738663673401 0.12126890569925308
v -0.015947019681334496 0.011330738663673401 0.12126890569925308
v -0.015947019681334496 0.011330738663673401 0.12126890569925308
v 0.015947014093399048 0.011330738663673401 0.12126890569925308
v 0.015947014093399048 0.011330738663673401 0.12126890569925308
v 0.015947014093399048 0.011330738663673401 0.12126890569925308
v -0.0159470122307539 -0.01685897260904312 -0.018648037686944008
v -0.0159470122307539 -0.01685897260904312 -0.018648037686944008
v -0.0159470122307539 -0.01685897260904312 -0.018648037686944008
v -0.0159470122307539 -0.01685897260904312 -0.018648037686944008
v -0.0159470122307539 -0.01685897260904312 -0.018648037686944008
v -0.0159470085054636 -0.018647046759724617 -0.13879354298114777
v -0.0159470085054636 -0.018647046759724617 -0.13879354298114777
v -0.0159470085054636 -0.018647046759724617 -0.13879354298114777
v 0.015947025269269943 -0.018647046759724617 -0.13879354298114777
v 0.015947025269269943 -0.018647046759724617 -0.13879354298114777
v 0.015947025269269943 -0.018647046759724617 -0.13879354298114777
v 0.015947019681334496 -0.01685897260904312 -0.018648037686944008
v 0.015947019681334496 -0.01685897260904312 -0.018648037686944008
v 0.015947019681334496 -0.01685897260904312 -0.018648037686944008
v 0.015947019681334496 -0.01685897260904312 -0.018648037686944008
v -0.00857281032949686 -0.06207777559757233 -0.048280324786901474
v -0.00857281032949686 -0.06207777559757233 -0.048280324786901474
v -0.00857281032949686 -0.03537300229072571 -0.04061541333794594
v -0.00857281032949686 -0.03537300229072571 -0.04061541333794594
v 0.008572815917432308 -0.06207777559757233 -0.048280324786901474
v 0.008572815917432308 -0.06207777559757233 -0.048280324786901474
v 0.008572815917432308 -0.03537300229072571 -0.04061541333794594
v 0.008572815917432308 -0.03537300229072571 -0.04061541333794594
v -0.008572811260819435 -0.06054479256272316 -0.013144147582352161
v -0.008572811260819435 -0.06054479256272316 -0.013144147582352161
v -0.008572811260819435 -0.06054479256272316 -0.013144147582352161
v -0.008572811260819435 -0.056068263947963715 -0.013144147582352161
v -0.008572811260819435 -0.056068263947963715 -0.013144147582352161
v -0.008572811260819435 -0.056068263947963715 -0.013144147582352161
v 0.008572814054787159 -0.06054479256272316 -0.013144147582352161
v 0.008572814054787159 -0.06054479256272316 -0.013144147582352161
v 0.008572814054787159 -0.06054479256272316 -0.013144147582352161
v 0.008572814054787159 -0.056068263947963715 -0.013144147582352161
v 0.008572814054787159 -0.056068263947963715 -0.013144147582352161
v 0.008572814054787159 -0.056068263947963715 -0.013144147582352161
v -0.008572813123464584 -0.06054479256272316 0.01732388138771057
v -0.008572813123464584 -0.06054479256272316 0.01732388138771057
v -0.008572813123464584 -0.06054479256272316 0.01732388138771057
v -0.008572813123464584 -0.056068263947963715 0.01732388138771057
v -0.008572813123464584 -0.056068263947963715 0.01732388138771057
v -0.008572813123464584 -0.056068263947963715 0.01732388138771057
v 0.008572813123464584 -0.06054479256272316 0.01732388138771057
v 0.008572813123464584 -0.06054479256272316 0.01732388138771057
v 0.008572813123464584 -0.06054479256272316 0.01732388138771057
v 0.008572813123464584 -0.056068263947963715 0.01732388138771057
v 0.008572813123464584 -0.056068263947963715 0.01732388138771057
v 0.008572813123464584 -0.056068263947963715 0.01732388138771057
v -0.008572814054787159 -0.05038878321647644 0.0328250490128994
v -0.008572814054787159 -0.05038878321647644 0.0328250490128994
v -0.008572814054787159 -0.05038878321647644 0.0328250490128994
v -0.008572813123464584 -0.04667874425649643 0.027267994359135628
v -0.008572813123464584 -0.04667874425649643 0.027267994359135628
v -0.008572813123464584 -0.04667874425649643 0.027267994359135628
v 0.00857281219214201 -0.05038878321647644 0.0328250490128994
v 0.00857281219214201 -0.05038878321647644 0.0328250490128994
v 0.00857281219214201 -0.05038878321647644 0.0328250490128994
v 0.008572813123464584 -0.04667874425649643 0.027267994359135628
v 0.008572813123464584 -0.04667874425649643 0.027267994359135628
v 0.008572813123464584 -0.04667874425649643 0.027267994359135628
v -0.008572814054787159 -0.036524850875139236 0.03454965353012085
v -0.008572814054787159 -0.036524850875139236 0.03454965353012085
v -0.008572814054787159 -0.036524850875139236 0.03454965353012085
v -0.008572814054787159 -0.036524850875139236 0.030333954840898514
v -0.008572814054787159 -0.036524850875139236 0.030333954840898514
v -0.008572814054787159 -0.036524850875139236 0.030333954840898514
v 0.00857281219214201 -0.036524850875139236 0.03454965353012085
v 0.00857281219214201 -0.036524850875139236 0.03454965353012085
v 0.00857281219214201 -0.036524850875139236 0.03454965353012085
v 0.00857281219214201 -0.036524850875139236 0.030333954840898514
v 0.00857281219214201 -0.036524850875139236 0.030333954840898514
v 0.00857281219214201 -0.036524850875139236 0.030333954840898514
v -0.008572814054787159 -0.02215314470231533 0.03789925575256348
v -0.008572814054787159 -0.02215314470231533 0.03789925575256348
v -0.008572814054787159 -0.02215314470231533 0.03789925575256348
v -0.008572813123464584 -0.02215314470231533 0.026984352618455887
v -0.008572813123464584 -0.02215314470231533 0.026984352618455887
v -0.008572813123464584 -0.02215314470231533 0.026984352618455887
v 0.00857281219214201 -0.02215314470231533 0.03789925575256348
v 0.00857281219214201 -0.02215314470231533 0.03789925575256348
v 0.00857281219214201 -0.02215314470231533 0.03789925575256348
v 0.008572813123464584 -0.02215314470231533 0.026984352618455887
v 0.008572813123464584 -0.02215314470231533 0.026984352618455887
v 0.008572813123464584 -0.02215314470231533 0.026984352618455887
v -0.008572814054787159 -0.010464156046509743 0.057090453803539276
v -0.008572814054787159 -0.010464156046509743 0.057090453803539276
v -0.00857281219214201 -0.010464156046509743 0.009922321885824203
v 0.008572811260819435 -0.010464156046509743 0.057090453803539276
v 0.008572811260819435 -0.010464156046509743 0.057090453803539276
v 0.008572814054787159 -0.010464156046509743 0.009922321885824203
v -0.008572814054787159 -0.01630864478647709 0.04749484732747078
v -0.008572814054787159 -0.01630864478647709 0.04749484732747078
v -0.008572813123464584 -0.01630864478647709 0.0173089187592268
v -0.008572813123464584 -0.01630864478647709 0.0173089187592268
v -0.008572813123464584 -0.01630864478647709 0.0173089187592268
v 0.008572811260819435 -0.01630864478647709 0.04749484732747078
v 0.008572811260819435 -0.01630864478647709 0.04749484732747078
v 0.008572813123464584 -0.01630864478647709 0.0173089187592268
v 0.008572813123464584 -0.01630864478647709 0.0173089187592268
v 0.008572813123464584 -0.01630864478647709 0.0173089187592268
v -0.008572809398174286 -0.010464156046509743 -0.03944050520658493
v -0.008572809398174286 -0.010464156046509743 -0.03944050520658493
v 0.008572816848754883 -0.010464156046509743 -0.03944050520658493
v 0.008572816848754883 -0.010464156046509743 -0.03944050520658493
v -0.008572809398174286 -0.01630864478647709 -0.03944050520658493
v -0.008572809398174286 -0.01630864478647709 -0.03944050520658493
v -0.008572809398174286 -0.01630864478647709 -0.03944050520658493
v 0.008572816848754883 -0.01630864478647709 -0.03944050520658493
v 0.008572816848754883 -0.01630864478647709 -0.03944050520658493
v 0.008572816848754883 -0.01630864478647709 -0.03944050520658493
v -0.0043412563391029835 -0.05170868709683418 -0.03944050520658493
v -0.0043412563391029835 -0.05170868709683418 -0.03944050520658493
v -0.0043412563391029835 -0.05170868709683418 -0.03944050520658493
v -0.0043412563391029835 -0.010152244940400124 -0.03944050520658493
v -0.0043412563391029835 -0.010152244940400124 -0.03944050520658493
v -0.0043412563391029835 -0.010152244940400124 -0.03944050520658493
v 0.00434126378968358 -0.05170868709683418 -0.03944050520658493
v 0.00434126378968358 -0.05170868709683418 -0.03944050520658493
v 0.00434126378968358 -0.05170868709683418 -0.03944050520658493
v 0.00434126378968358 -0.010152244940400124 -0.03944050520658493
v 0.00434126378968358 -0.010152244940400124 -0.03944050520658493
v 0.00434126378968358 -0.010152244940400124 -0.03944050520658493
v -0.004341257736086845 -0.05400444194674492 -0.0032262359745800495
v -0.004341257736086845 -0.05400444194674492 -0.0032262359745800495
v -0.004341257736086845 -0.05400444194674492 -0.0032262359745800495
v -0.004341257736086845 -0.017343051731586456 -0.0032262359745800495
v -0.004341257736086845 -0.017343051731586456 -0.0032262359745800495
v -0.004341257736086845 -0.017343051731586456 -0.0032262359745800495
v 0.0043412623926997185 -0.05400444194674492 -0.0032262359745800495
v 0.0043412623926997185 -0.05400444194674492 -0.0032262359745800495
v 0.0043412623926997185 -0.05400444194674492 -0.0032262359745800495
v 0.0043412623926997185 -0.017343051731586456 -0.0032262359745800495
v 0.0043412623926997185 -0.017343051731586456 -0.0032262359745800495
v 0.0043412623926997185 -0.017343051731586456 -0.0032262359745800495
v -0.0043412563391029835 -0.03342802822589874 -0.03944050520658493
v -0.0043412563391029835 -0.03342802822589874 -0.03944050520658493
v 0.00434126378968358 -0.03342802822589874 -0.03944050520658493
v 0.00434126378968358 -0.03342802822589874 -0.03944050520658493
v 0.004341262858361006 -0.0339810773730278 -0.012008942663669586
v 0.004341262858361006 -0.0339810773730278 -0.012008942663669586
v 0.004341262858361006 -0.0339810773730278 -0.012008942663669586
v -0.004341257270425558 -0.0339810773730278 -0.012008942663669586
v -0.004341257270425558 -0.0339810773730278 -0.012008942663669586
v -0.004341257270425558 -0.0339810773730278 -0.012008942663669586
v -0.006497194059193134 0.010300899855792522 -0.14260859787464142
v -0.006497194059193134 0.010300899855792522 -0.14260859787464142
v -0.006497194059193134 0.010300899855792522 -0.14260859787464142
v -0.006497194059193134 0.024427467957139015 -0.14260859787464142
v -0.006497194059193134 0.024427467957139015 -0.14260859787464142
v -0.006497194059193134 0.024427467957139015 -0.14260859787464142
v 0.006497192662209272 0.010300899855792522 -0.14260859787464142
v 0.006497192662209272 0.010300899855792522 -0.14260859787464142
v 0.006497192662209272 0.010300899855792522 -0.14260859787464142
v 0.006497192662209272 0.024427467957139015 -0.14260859787464142
v 0.006497192662209272 0.024427467957139015 -0.14260859787464142
v 0.006497192662209272 0.024427467957139015 -0.14260859787464142
v -0.006497194524854422 0.0034906170330941677 -0.1097419485449791
v -0.006497194524854422 0.0034906170330941677 -0.1097419485449791
v -0.006497194524854422 0.0034906170330941677 -0.1097419485449791
v -0.006497194524854422 0.013891189359128475 -0.1097419485449791
v -0.006497194524854422 0.013891189359128475 -0.1097419485449791
v -0.006497194524854422 0.013891189359128475 -0.1097419485449791
v 0.0064971912652254105 0.0034906170330941677 -0.1097419485449791
v 0.0064971912652254105 0.0034906170330941677 -0.1097419485449791
v 0.0064971912652254105 0.0034906170330941677 -0.1097419485449791
v 0.0064971912652254105 0.013891189359128475 -0.1097419485449791
v 0.0064971912652254105 0.013891189359128475 -0.1097419485449791
v 0.0064971912652254105 0.013891189359128475 -0.1097419485449791
v -0.00649719312787056 0.010300899855792522 -0.15365353226661682
v -0.00649719312787056 0.010300899855792522 -0.15365353226661682
v -0.00649719312787056 0.010300899855792522 -0.15365353226661682
v -0.00649719312787056 0.029750315472483635 -0.15365353226661682
v -0.00649719312787056 0.029750315472483635 -0.15365353226661682
v -0.00649719312787056 0.029750315472483635 -0.15365353226661682
v 0.00649719312787056 0.010300899855792522 -0.15365353226661682
v 0.00649719312787056 0.010300899855792522 -0.15365353226661682
v 0.00649719312787056 0.010300899855792522 -0.15365353226661682
v 0.00649719312787056 0.029750315472483635 -0.15365353226661682
v 0.00649719312787056 0.029750315472483635 -0.15365353226661682
v 0.00649719312787056 0.029750315472483635 -0.15365353226661682
v -0.006497192662209272 0.0009858973789960146 -0.16549688577651978
v -0.006497192662209272 0.0009858973789960146 -0.16549688577651978
v -0.006497192662209272 0.0009858973789960146 -0.16549688577651978
v -0.006497192662209272 0.011652606539428234 -0.16549688577651978
v -0.006497192662209272 0.011652606539428234 -0.16549688577651978
v -0.006497192662209272 0.011652606539428234 -0.16549688577651978
v 0.006497194059193134 0.0009858973789960146 -0.16549688577651978
v 0.006497194059193134 0.0009858973789960146 -0.16549688577651978
v 0.006497194059193134 0.0009858973789960146 -0.16549688577651978
v 0.006497194059193134 0.011652606539428234 -0.16549688577651978
v 0.006497194059193134 0.011652606539428234 -0.16549688577651978
v 0.006497194059193134 0.011652606539428234 -0.16549688577651978
v -0.006497192662209272 -0.002113879658281803 -0.16812700033187866
v -0.006497192662209272 -0.002113879658281803 -0.16812700033187866
v -0.006497192662209272 -0.002113879658281803 -0.16812700033187866
v -0.006497192662209272 0.004466760903596878 -0.1724165976047516
v -0.006497192662209272 0.004466760903596878 -0.1724165976047516
v -0.006497192662209272 0.004466760903596878 -0.1724165976047516
v 0.006497194059193134 -0.002113879658281803 -0.16812700033187866
v 0.006497194059193134 -0.002113879658281803 -0.16812700033187866
v 0.006497194059193134 -0.002113879658281803 -0.16812700033187866
v 0.006497194059193134 0.004466760903596878 -0.1724165976047516
v 0.006497194059193134 0.004466760903596878 -0.1724165976047516
v 0.006497194059193134 0.004466760903596878 -0.1724165976047516
v -0.010351025499403477 0.05303257703781128 -0.09965065121650696
v -0.010351025499403477 0.05303257703781128 -0.09965065121650696
v -0.010351025499403477 0.05303257703781128 -0.09965065121650696
v -0.010351025499403477 0.06064827740192413 -0.09965065121650696
v -0.010351025499403477 0.06064827740192413 -0.09965065121650696
v -0.010351025499403477 0.06064827740192413 -0.09965065121650696
v 0.010351038537919521 0.05303257703781128 -0.09965065121650696
v 0.010351038537919521 0.05303257703781128 -0.09965065121650696
v 0.010351038537919521 0.05303257703781128 -0.09965065121650696
v 0.010351038537919521 0.06064827740192413 -0.09965065121650696
v 0.010351038537919521 0.06064827740192413 -0.09965065121650696
v 0.010351038537919521 0.06064827740192413 -0.09965065121650696
v -0.010351025499403477 0.05303257703781128 -0.0912104994058609
v -0.010351025499403477 0.05303257703781128 -0.0912104994058609
v -0.010351025499403477 0.05303257703781128 -0.0912104994058609
v -0.010351025499403477 0.06064827740192413 -0.0912104994058609
v -0.010351025499403477 0.06064827740192413 -0.0912104994058609
v -0.010351025499403477 0.06064827740192413 -0.0912104994058609
v 0.010351038537919521 0.05303257703781128 -0.0912104994058609
v 0.010351038537919521 0.05303257703781128 -0.0912104994058609
v 0.010351038537919521 0.05303257703781128 -0.0912104994058609
v 0.010351038537919521 0.06064827740192413 -0.0912104994058609
v 0.010351038537919521 0.06064827740192413 -0.0912104994058609
v 0.010351038537919521 0.06064827740192413 -0.0912104994058609
v 0.0034503501374274492 0.05303257703781128 -0.09965065121650696
v 0.0034503501374274492 0.05303257703781128 -0.09965065121650696
v -0.003450336866080761 0.05303257703781128 -0.09965065121650696
v -0.003450336866080761 0.05303257703781128 -0.09965065121650696
v -0.003450336866080761 0.06064827740192413 -0.09965065121650696
v -0.003450336866080761 0.06064827740192413 -0.09965065121650696
v -0.003450336866080761 0.06064827740192413 -0.09965065121650696
v 0.0034503501374274492 0.06064827740192413 -0.09965065121650696
v 0.0034503501374274492 0.06064827740192413 -0.09965065121650696
v 0.0034503501374274492 0.06064827740192413 -0.09965065121650696
v -0.0034503373317420483 0.05303257703781128 -0.0912104994058609
v -0.0034503373317420483 0.05303257703781128 -0.0912104994058609
v 0.0034503499045968056 0.05303257703781128 -0.0912104994058609
v 0.0034503499045968056 0.05303257703781128 -0.0912104994058609
v 0.0034503499045968056 0.06064827740192413 -0.0912104994058609
v 0.0034503499045968056 0.06064827740192413 -0.0912104994058609
v 0.0034503499045968056 0.06064827740192413 -0.0912104994058609
v -0.0034503373317420483 0.06064827740192413 -0.0912104994058609
v -0.0034503373317420483 0.06064827740192413 -0.0912104994058609
v -0.0034503373317420483 0.06064827740192413 -0.0912104994058609
v -0.010351025499403477 0.056840427219867706 -0.09965065121650696
v -0.010351025499403477 0.056840427219867706 -0.09965065121650696
v 0.010351038537919521 0.056840427219867706 -0.09965065121650696
v 0.010351038537919521 0.056840427219867706 -0.09965065121650696
v 0.010351038537919521 0.056840427219867706 -0.0912104994058609
v 0.010351038537919521 0.056840427219867706 -0.0912104994058609
v -0.010351025499403477 0.056840427219867706 -0.0912104994058609
v -0.010351025499403477 0.056840427219867706 -0.0912104994058609
v 0.0034503499045968056 0.056840427219867706 -0.0912104994058609
v 0.0034503499045968056 0.056840427219867706 -0.0912104994058609
v 0.0034503499045968056 0.056840427219867706 -0.0912104994058609
v -0.0034503373317420483 0.056840427219867706 -0.0912104994058609
v -0.0034503373317420483 0.056840427219867706 -0.0912104994058609
v -0.0034503373317420483 0.056840427219867706 -0.0912104994058609
v -0.003450336866080761 0.056840427219867706 -0.09965065121650696
v -0.003450336866080761 0.056840427219867706 -0.09965065121650696
v -0.003450336866080761 0.056840427219867706 -0.09965065121650696
v 0.0034503501374274492 0.056840427219867706 -0.09965065121650696
v 0.0034503501374274492 0.056840427219867706 -0.09965065121650696
v 0.0034503501374274492 0.056840427219867706 -0.09965065121650696
v -0.016767948865890503 0.011668063700199127 -0.1268668919801712
v -0.016767948865890503 0.011668063700199127 -0.1268668919801712
v -0.016767948865890503 0.011668063700199127 -0.1268668919801712
v 0.016767965629696846 0.011668063700199127 -0.1268668919801712
v 0.016767965629696846 0.011668063700199127 -0.1268668919801712
v 0.016767965629696846 0.011668063700199127 -0.1268668919801712
v -0.016767963767051697 0.011668063700199127 0.19776861369609833
v -0.016767963767051697 0.011668063700199127 0.19776861369609833
v -0.016767963767051697 0.011668063700199127 0.19776861369609833
v -0.01121122483164072 0.05303257703781128 -0.11150963604450226
v -0.01121122483164072 0.05303257703781128 -0.11150963604450226
v -0.01121122483164072 0.05303257703781128 -0.11150963604450226
v -0.016767948865890503 0.046986471861600876 -0.11895060539245605
v -0.016767948865890503 0.046986471861600876 -0.11895060539245605
v -0.016767948865890503 0.046986471861600876 -0.11895060539245605
v -0.016767948865890503 0.046986471861600876 -0.11895060539245605
v 0.01121123880147934 0.05303257703781128 -0.11150963604450226
v 0.01121123880147934 0.05303257703781128 -0.11150963604450226
v 0.01121123880147934 0.05303257703781128 -0.11150963604450226
v 0.016767965629696846 0.046986471861600876 -0.11895060539245605
v 0.016767965629696846 0.046986471861600876 -0.11895060539245605
v 0.016767965629696846 0.046986471861600876 -0.11895060539245605
v 0.016767965629696846 0.046986471861600876 -0.11895060539245605
v -0.01121123880147934 0.05303257703781128 0.1916828453540802
v -0.01121123880147934 0.05303257703781128 0.1916828453540802
v -0.01121123880147934 0.05303257703781128 0.1916828453540802
v -0.016767963767051697 0.04698353633284569 0.19776861369609833
v -0.016767963767051697 0.04698353633284569 0.19776861369609833
v -0.016767963767051697 0.04698353633284569 0.19776861369609833
v -0.016767963767051697 0.04698353633284569 0.19776861369609833
v 0.011211225762963295 0.05303257703781128 0.1916828453540802
v 0.011211225762963295 0.05303257703781128 0.1916828453540802
v 0.011211225762963295 0.05303257703781128 0.1916828453540802
v 0.011211225762963295 0.05303257703781128 0.1916828453540802
v 0.0167679525911808 0.04698353633284569 0.19776861369609833
v 0.0167679525911808 0.04698353633284569 0.19776861369609833
v 0.0167679525911808 0.04698353633284569 0.19776861369609833
v 0.0167679525911808 0.04698353633284569 0.19776861369609833
v 0.01676795445382595 0.011668063700199127 0.12126890569925308
v 0.01676795445382595 0.011668063700199127 0.12126890569925308
v 0.01676795445382595 0.011668063700199127 0.12126890569925308
v -0.0167679600417614 0.011668063700199127 0.12126890569925308
v -0.0167679600417614 0.011668063700199127 0.12126890569925308
v -0.0167679600417614 0.011668063700199127 0.12126890569925308
v 0.011211229488253593 0.05303257703781128 0.12126890569925308
v 0.011211229488253593 0.05303257703781128 0.12126890569925308
v 0.011211229488253593 0.05303257703781128 0.12126890569925308
v 0.01676795445382595 0.04698421061038971 0.12126890569925308
v 0.01676795445382595 0.04698421061038971 0.12126890569925308
v 0.01676795445382595 0.04698421061038971 0.12126890569925308
v -0.011211235076189041 0.05303257703781128 0.12126890569925308
v -0.011211235076189041 0.05303257703781128 0.12126890569925308
v -0.011211235076189041 0.05303257703781128 0.12126890569925308
v -0.0167679600417614 0.04698421061038971 0.12126890569925308
v -0.0167679600417614 0.04698421061038971 0.12126890569925308
v -0.0167679600417614 0.04698421061038971 0.12126890569925308
v 0.0167679525911808 0.011668063700199127 0.19776861369609833
v 0.0167679525911808 0.011668063700199127 0.19776861369609833
v 0.0167679525911808 0.011668063700199127 0.19776861369609833
v -0.016767963767051697 0.011668063700199127 0.19060222804546356
v -0.016767963767051697 0.011668063700199127 0.19060222804546356
v -0.016767963767051697 0.011668063700199127 0.19060222804546356
v -0.016767963767051697 0.04698365926742554 0.19060222804546356
v -0.016767963767051697 0.04698365926742554 0.19060222804546356
v 0.0167679525911808 0.011668063700199127 0.19060222804546356
v 0.0167679525911808 0.011668063700199127 0.19060222804546356
v 0.0167679525911808 0.011668063700199127 0.19060222804546356
v 0.0167679525911808 0.04698365926742554 0.19060222804546356
v 0.0167679525911808 0.04698365926742554 0.19060222804546356
v -0.002617450663819909 0.05303257703781128 0.17127230763435364
v -0.002617450663819909 0.05303257703781128 0.17127230763435364
v -0.002617450663819909 0.05303257703781128 0.17127230763435364
v -0.002617450663819909 0.05693375691771507 0.17127230763435364
v -0.002617450663819909 0.05693375691771507 0.17127230763435364
v -0.002617450663819909 0.05693375691771507 0.17127230763435364
v 0.0026174092199653387 0.05303257703781128 0.17127230763435364
v 0.0026174092199653387 0.05303257703781128 0.17127230763435364
v 0.0026174092199653387 0.05303257703781128 0.17127230763435364
v 0.0026174092199653387 0.05693375691771507 0.17127230763435364
v 0.0026174092199653387 0.05693375691771507 0.17127230763435364
v 0.0026174092199653387 0.05693375691771507 0.17127230763435364
v -0.0026174511294811964 0.05303257703781128 0.1864493042230606
v -0.0026174511294811964 0.05303257703781128 0.1864493042230606
v -0.0026174511294811964 0.05303257703781128 0.1864493042230606
v -0.0026174511294811964 0.05693375691771507 0.1864493042230606
v -0.0026174511294811964 0.05693375691771507 0.1864493042230606
v -0.0026174511294811964 0.05693375691771507 0.1864493042230606
v 0.0026174087543040514 0.05303257703781128 0.1864493042230606
v 0.0026174087543040514 0.05303257703781128 0.1864493042230606
v 0.0026174087543040514 0.05303257703781128 0.1864493042230606
v 0.0026174087543040514 0.05693375691771507 0.1864493042230606
v 0.0026174087543040514 0.05693375691771507 0.1864493042230606
v 0.0026174087543040514 0.05693375691771507 0.1864493042230606
v 0.002617408987134695 0.05303257703781128 0.17886079847812653
v 0.002617408987134695 0.05303257703781128 0.17886079847812653
v 0.002617408987134695 0.06064827740192413 0.17886079847812653
v 0.002617408987134695 0.06064827740192413 0.17886079847812653
v 0.002617408987134695 0.06064827740192413 0.17886079847812653
v -0.0026174508966505527 0.05303257703781128 0.17886079847812653
v -0.0026174508966505527 0.05303257703781128 0.17886079847812653
v -0.0026174508966505527 0.06064827740192413 0.17886079847812653
v -0.0026174508966505527 0.06064827740192413 0.17886079847812653
v -0.0026174508966505527 0.06064827740192413 0.17886079847812653
v -0.006234577391296625 -0.011336554773151875 -0.018648037686944008
v -0.006234577391296625 -0.011336554773151875 -0.018648037686944008
v -0.006234577391296625 -0.011336554773151875 -0.018648037686944008
v -0.006234577391296625 -0.011336554773151875 -0.018648037686944008
v -0.0159470122307539 -0.0024276699405163527 -0.018648037686944008
v -0.0159470122307539 -0.0024276699405163527 -0.018648037686944008
v -0.0159470122307539 -0.0024276699405163527 -0.018648037686944008
v -0.0159470122307539 -0.011336554773151875 -0.027556922286748886
v -0.0159470122307539 -0.011336554773151875 -0.027556922286748886
v -0.0159470122307539 -0.011336554773151875 -0.027556922286748886
v -0.013102304190397263 -0.008727200329303741 -0.018648037686944008
v -0.013102304190397263 -0.008727200329303741 -0.018648037686944008
v -0.013102304190397263 -0.008727200329303741 -0.018648037686944008
v -0.013102304190397263 -0.008727200329303741 -0.018648037686944008
v 0.015947019681334496 -0.0024276699405163527 -0.018648037686944008
v 0.015947019681334496 -0.0024276699405163527 -0.018648037686944008
v 0.015947019681334496 -0.0024276699405163527 -0.018648037686944008
v 0.0062345839105546474 -0.011336554773151875 -0.018648037686944008
v 0.0062345839105546474 -0.011336554773151875 -0.018648037686944008
v 0.0062345839105546474 -0.011336554773151875 -0.018648037686944008
v 0.0062345839105546474 -0.011336554773151875 -0.018648037686944008
v 0.015947019681334496 -0.011336554773151875 -0.027556922286748886
v 0.015947019681334496 -0.011336554773151875 -0.027556922286748886
v 0.015947019681334496 -0.011336554773151875 -0.027556922286748886
v 0.013102312572300434 -0.008727200329303741 -0.018648037686944008
v 0.013102312572300434 -0.008727200329303741 -0.018648037686944008
v 0.013102312572300434 -0.008727200329303741 -0.018648037686944008
v 0.013102312572300434 -0.008727200329303741 -0.018648037686944008
v -0.015947019681334496 -0.0024276699405163527 0.12126890569925308
v -0.015947019681334496 -0.0024276699405163527 0.12126890569925308
v -0.015947019681334496 -0.0024276699405163527 0.12126890569925308
v -0.0062345839105546474 -0.011336554773151875 0.12126890569925308
v -0.0062345839105546474 -0.011336554773151875 0.12126890569925308
v -0.0062345839105546474 -0.011336554773151875 0.12126890569925308
v -0.013102310709655285 -0.008727200329303741 0.12126890569925308
v -0.013102310709655285 -0.008727200329303741 0.12126890569925308
v -0.013102310709655285 -0.008727200329303741 0.12126890569925308
v 0.006234577391296625 -0.011336554773151875 0.12126890569925308
v 0.006234577391296625 -0.011336554773151875 0.12126890569925308
v 0.006234577391296625 -0.011336554773151875 0.12126890569925308
v 0.015947014093399048 -0.0024276699405163527 0.12126890569925308
v 0.015947014093399048 -0.0024276699405163527 0.12126890569925308
v 0.015947014093399048 -0.0024276699405163527 0.12126890569925308
v 0.013102305121719837 -0.008727200329303741 0.12126890569925308
v 0.013102305121719837 -0.008727200329303741 0.12126890569925308
v 0.013102305121719837 -0.008727200329303741 0.12126890569925308
vn 0 1 0
vn 1 0 0
vn 0 1 0
vn -1 0 0
vn 0 0 1
vn 0 1 0
vn -1 0 0
vn 0 0 1
vn 0 1 0
vn 1 0 0
vn 0.9113706946372986 -0.411586731672287 0
vn 1 0 0
vn 0 -1 0
vn 0.3551967740058899 -0.9347915649414062 0
vn 0.3551967740058899 -0.9347915649414062 0
vn 0.9113706946372986 -0.411586731672287 0
vn 0 -1 0
vn -0.3551967740058899 -0.9347915649414062 0
vn -0.9113706946372986 -0.411586731672287 0
vn -1 0 0
vn -0.3551967740058899 -0.9347915649414062 0
vn -0.9113706946372986 -0.411586731672287 0
vn 0 -0.9238766431808472 0.38269031047821045
vn 0 -1 0
vn -0.3551967740058899 -0.9347915649414062 0
vn 0 0 1
vn 0 -0.38269031047821045 0.9238766431808472
vn -0.9113706946372986 -0.411586731672287 0
vn -1 0 0
vn 0 -0.38269031047821045 0.9238766431808472
vn 0 -0.9238766431808472 0.38269031047821045
vn -0.3551967740058899 -0.9347915649414062 0
vn -0.9113706946372986 -0.411586731672287 0
vn 0 -0.9238766431808472 0.38269031047821045
vn 0 -1 0
vn 0.3551967740058899 -0.9347915649414062 0
vn 0 0 1
vn 0 -0.38269031047821045 0.9238766431808472
vn 0.9113706946372986 -0.411586731672287 0
vn 1 0 0
vn 0 -0.38269031047821045 0.9238766431808472
vn 0 -0.9238766431808472 0.38269031047821045
vn 0.3551967740058899 -0.9347915649414062 0
vn 0.9113706946372986 -0.411586731672287 0
vn 0 0.3928086459636688 -0.9196202158927917
vn 0 -0.9876785278320312 -0.15649659931659698
vn -1 0 0
vn 0 0.31829699873924255 -0.9479910731315613
vn 0 0.3928086459636688 -0.9196202158927917
vn -1 0 0
vn 0 0.3928086459636688 -0.9196202158927917
vn 0 -0.9876785278320312 -0.15649659931659698
vn 1 0 0
vn 0 0.31829699873924255 -0.9479910731315613
vn 0 0.3928086459636688 -0.9196202158927917
vn 1 0 0
vn 0 -0.24491147696971893 0.9695454239845276
vn 0 -0.9876785278320312 -0.15649659931659698
vn -1 0 0
vn 0 -0.24491147696971893 0.9695454239845276
vn 0 -0.3367924690246582 0.9415789246559143
vn -1 0 0
vn 0 -0.24491147696971893 0.9695454239845276
vn 0 -0.9876785278320312 -0.15649659931659698
vn 1 0 0
vn 0 -0.24491147696971893 0.9695454239845276
vn 0 -0.3367924690246582 0.9415789246559143
vn 1 0 0
vn 0 0.31829699873924255 -0.9479910731315613
vn 0 -0.5791931748390198 -0.8151903748512268
vn -1 0 0
vn 0 0.31829699873924255 -0.9479910731315613
vn 0 -0.5791931748390198 -0.8151903748512268
vn 1 0 0
vn 0 -0.3367924690246582 0.9415789246559143
vn 0 -0.6384023427963257 0.7697027921676636
vn -1 0 0
vn 0 -0.3367924690246582 0.9415789246559143
vn 0 -0.6384023427963257 0.7697027921676636
vn 1 0 0
vn 0 0.839089572429657 -0.5439932942390442
vn 0 -0.945640504360199 -0.3252139389514923
vn -1 0 0
vn 0 0.839089572429657 -0.5439932942390442
vn 0 -0.945640504360199 -0.3252139389514923
vn 1 0 0
vn 0 0.839089572429657 -0.5439932942390442
vn 0 1 0
vn -1 0 0
vn 0 0.839089572429657 -0.5439932942390442
vn 0 1 0
vn 1 0 0
vn 0 1 0
vn -1 0 0
vn 0 1 0
vn 1 0 0
vn 0 0 1
vn 0 1 0
vn -1 0 0
vn 0 0 1
vn 0 1 0
vn 1 0 0
vn 0 0 1
vn 0 -0.6384023427963257 0.7697027921676636
vn -0.6577925682067871 0.23009739816188812 0.7171918749809265
vn -1 0 0
vn -1 0 0
vn 0 -0.5791931748390198 -0.8151903748512268
vn 0 -0.945640504360199 -0.3252139389514923
vn -1 0 0
vn 0 -0.5791931748390198 -0.8151903748512268
vn 0 -0.945640504360199 -0.3252139389514923
vn 1 0 0
vn 0 0 1
vn 0 -0.6384023427963257 0.7697027921676636
vn 0.6577925682067871 0.23009739816188812 0.7171918749809265
vn 1 0 0
vn 0 -0.9990489482879639 0.04360213503241539
vn -1 0 0
vn 0 0.7987141609191895 0.6017106771469116
vn -1 0 0
vn 0 -0.9990489482879639 0.04360213503241539
vn 1 0 0
vn 0 0.7987141609191895 0.6017106771469116
vn 1 0 0
vn 0 -0.9990489482879639 0.04360213503241539
vn 0 -1 0
vn -1 0 0
vn 0 0.7987141609191895 0.6017106771469116
vn 0 1 0
vn -1 0 0
vn 0 -0.9990489482879639 0.04360213503241539
vn 0 -1 0
vn 1 0 0
vn 0 0.7987141609191895 0.6017106771469116
vn 0 1 0
vn 1 0 0
vn 0 -0.8364848494529724 0.5479900240898132
vn 0 -1 0
vn -1 0 0
vn 0 0.7271157503128052 -0.6865148544311523
vn 0 1 0
vn -1 0 0
vn 0 -0.8364848494529724 0.5479900240898132
vn 0 -1 0
vn 1 0 0
vn 0 0.7271157503128052 -0.6865148544311523
vn 0 1 0
vn 1 0 0
vn 0 -0.12339473515748978 0.992357611656189
vn 0 -0.8364848494529724 0.5479900240898132
vn -1 0 0
vn 0 0.28909969329833984 -0.957298994064331
vn 0 0.7271157503128052 -0.6865148544311523
vn -1 0 0
vn 0 -0.12339473515748978 0.992357611656189
vn 0 -0.8364848494529724 0.5479900240898132
vn 1 0 0
vn 0 0.28909969329833984 -0.957298994064331
vn 0 0.7271157503128052 -0.6865148544311523
vn 1 0 0
vn 0 -0.12339473515748978 0.992357611656189
vn 0 -0.22699883580207825 0.9738950133323669
vn -1 0 0
vn 0 0.28909969329833984 -0.957298994064331
vn 0 -0.22699883580207825 -0.9738950133323669
vn -1 0 0
vn 0 -0.12339473515748978 0.992357611656189
vn 0 -0.22699883580207825 0.9738950133323669
vn 1 0 0
vn 0 0.28909969329833984 -0.957298994064331
vn 0 -0.22699883580207825 -0.9738950133323669
vn 1 0 0
vn 0 -0.22699883580207825 0.9738950133323669
vn 0 -0.8540594577789307 0.5201753377914429
vn -1 0 0
vn 0 -0.22699883580207825 -0.9738950133323669
vn 0 -0.8559892773628235 -0.516993522644043
vn -1 0 0
vn 0 -0.22699883580207825 0.9738950133323669
vn 0 -0.8540594577789307 0.5201753377914429
vn 1 0 0
vn 0 -0.22699883580207825 -0.9738950133323669
vn 0 -0.8559892773628235 -0.516993522644043
vn 1 0 0
vn 0 -0.8540594577789307 0.5201753377914429
vn -1 0 0
vn -1 0 0
vn 0 -0.8540594577789307 0.5201753377914429
vn 1 0 0
vn 1 0 0
vn 0 -0.8540594577789307 0.5201753377914429
vn -1 0 0
vn 0 -0.8559892773628235 -0.516993522644043
vn 0 -1 0
vn -1 0 0
vn 0 -0.8540594577789307 0.5201753377914429
vn 1 0 0
vn 0 -0.8559892773628235 -0.516993522644043
vn 0 -1 0
vn 1 0 0
vn 0 0 -1
vn -1 0 0
vn 0 0 -1
vn 1 0 0
vn 0 0 -1
vn 0 -1 0
vn -1 0 0
vn 0 0 -1
vn 0 -1 0
vn 1 0 0
vn 0 0 -1
vn 0 -0.9979945421218872 -0.06329964846372604
vn -1 0 0
vn 0 0 -1
vn 0 0.9808451533317566 0.1947891116142273
vn -1 0 0
vn 0 0 -1
vn 0 -0.9979945421218872 -0.06329964846372604
vn 1 0 0
vn 0 0 -1
vn 0 0.9808451533317566 0.1947891116142273
vn 1 0 0
vn 0 0.40168946981430054 0.9157759547233582
vn 0 -0.9979945421218872 -0.06329964846372604
vn -1 0 0
vn 0 0.9808451533317566 0.1947891116142273
vn 0 -0.4667847156524658 0.8843710422515869
vn -1 0 0
vn 0 0.40168946981430054 0.9157759547233582
vn 0 -0.9979945421218872 -0.06329964846372604
vn 1 0 0
vn 0 0.9808451533317566 0.1947891116142273
vn 0 -0.4667847156524658 0.8843710422515869
vn 1 0 0
vn 0 0 -1
vn -1 0 0
vn 0 0 -1
vn 1 0 0
vn 0 0.40168946981430054 0.9157759547233582
vn 0 -0.4667847156524658 0.8843710422515869
vn 1 0 0
vn 0 0.40168946981430054 0.9157759547233582
vn 0 -0.4667847156524658 0.8843710422515869
vn -1 0 0
vn 0 -0.9791995286941528 -0.20289991796016693
vn 0 -1 0
vn -1 0 0
vn 0 0.9008525013923645 0.43412530422210693
vn 0 0.9522602558135986 0.30528727173805237
vn -1 0 0
vn 0 -0.9791995286941528 -0.20289991796016693
vn 0 -1 0
vn 1 0 0
vn 0 0.9008525013923645 0.43412530422210693
vn 0 0.9522602558135986 0.30528727173805237
vn 1 0 0
vn 0 0 1
vn 0 -0.9791995286941528 -0.20289991796016693
vn -1 0 0
vn 0 0 1
vn 0 0.9522602558135986 0.30528727173805237
vn -1 0 0
vn 0 0 1
vn 0 -0.9791995286941528 -0.20289991796016693
vn 1 0 0
vn 0 0 1
vn 0 0.9522602558135986 0.30528727173805237
vn 1 0 0
vn 0 -0.7860128879547119 0.6182101368904114
vn 0 -1 0
vn -1 0 0
vn 0 0.5475726127624512 -0.8367581963539124
vn 0 0.9008525013923645 0.43412530422210693
vn -1 0 0
vn 0 -0.7860128879547119 0.6182101368904114
vn 0 -1 0
vn 1 0 0
vn 0 0.5475726127624512 -0.8367581963539124
vn 0 0.9008525013923645 0.43412530422210693
vn 1 0 0
vn 0 -0.6469950675964355 0.7624941468238831
vn 0 -0.7860128879547119 0.6182101368904114
vn -1 0 0
vn 0 0.5475726127624512 -0.8367581963539124
vn 0 0.6936301589012146 -0.7203313708305359
vn -1 0 0
vn 0 -0.6469950675964355 0.7624941468238831
vn 0 -0.7860128879547119 0.6182101368904114
vn 1 0 0
vn 0 0.5475726127624512 -0.8367581963539124
vn 0 0.6936301589012146 -0.7203313708305359
vn 1 0 0
vn 0 -0.546109139919281 -0.8377140164375305
vn 0 -0.6469950675964355 0.7624941468238831
vn -1 0 0
vn 0 0.6936301589012146 -0.7203313708305359
vn 0 -0.546109139919281 -0.8377140164375305
vn -1 0 0
vn 0 -0.546109139919281 -0.8377140164375305
vn 0 -0.6469950675964355 0.7624941468238831
vn 1 0 0
vn 0 0.6936301589012146 -0.7203313708305359
vn 0 -0.546109139919281 -0.8377140164375305
vn 1 0 0
vn 0 0 -1
vn 0 -1 0
vn -1 0 0
vn 0 0 -1
vn 0 1 0
vn -1 0 0
vn 0 0 -1
vn 0 -1 0
vn 1 0 0
vn 0 0 -1
vn 0 1 0
vn 1 0 0
vn 0 0 1
vn 0 -1 0
vn -1 0 0
vn 0 0 1
vn 0 1 0
vn -1 0 0
vn 0 0 1
vn 0 -1 0
vn 1 0 0
vn 0 0 1
vn 0 1 0
vn 1 0 0
vn 0 0 -1
vn 0 -1 0
vn 0 0 -1
vn 0 -1 0
vn 0 0 -1
vn 0 1 0
vn 1 0 0
vn 0 0 -1
vn 0 1 0
vn -1 0 0
vn 0 0 1
vn 0 -1 0
vn 0 0 1
vn 0 -1 0
vn 0 0 1
vn 0 1 0
vn -1 0 0
vn 0 0 1
vn 0 1 0
vn 1 0 0
vn 0 0 -1
vn -1 0 0
vn 0 0 -1
vn 1 0 0
vn 0 0 1
vn 1 0 0
vn 0 0 1
vn -1 0 0
vn 0 0 1
vn 0 1 0
vn -1 0 0
vn 0 0 1
vn 0 1 0
vn 1 0 0
vn 0 0 -1
vn 0 1 0
vn 1 0 0
vn 0 0 -1
vn 0 1 0
vn -1 0 0
vn 0 0.21869833767414093 -0.9757925271987915
vn 0 -1 0
vn -1 0 0
vn 0 0.21869833767414093 -0.9757925271987915
vn 0 -1 0
vn 1 0 0
vn 0 0 1
vn 0 -1 0
vn -1 0 0
vn 0 0.7761048078536987 -0.6306039094924927
vn 0 1 0
vn -0.7363275289535522 0.6766252517700195 0
vn 0 0.21869833767414093 -0.9757925271987915
vn 0 0.7761048078536987 -0.6306039094924927
vn -0.7363275289535522 0.6766252517700195 0
vn -1 0 0
vn 0 0.7761048078536987 -0.6306039094924927
vn 0 1 0
vn 0.7363275289535522 0.6766252517700195 0
vn 0 0.21869833767414093 -0.9757925271987915
vn 0 0.7761048078536987 -0.6306039094924927
vn 0.7363275289535522 0.6766252517700195 0
vn 1 0 0
vn 0 0.7092037200927734 0.7050036191940308
vn 0 1 0
vn -0.736423134803772 0.6765213012695312 0
vn 0 0 1
vn 0 0.7092037200927734 0.7050036191940308
vn -0.736423134803772 0.6765213012695312 0
vn -1 0 0
vn 0 0.7092037200927734 0.7050036191940308
vn 0 1 0
vn 0.736423134803772 0.6765213012695312 0
vn 0.736423134803772 0.6765213012695312 0
vn 0 0 1
vn 0 0.7092037200927734 0.7050036191940308
vn 0.736423134803772 0.6765213012695312 0
vn 1 0 0
vn 0 -1 0
vn 0 -1 0
vn 1 0 0
vn 0 -1 0
vn 0 -1 0
vn -1 0 0
vn 0 1 0
vn 0.7363275289535522 0.6766252517700195 0
vn 0.736423134803772 0.6765213012695312 0
vn 0.7363275289535522 0.6766252517700195 0
vn 0.736423134803772 0.6765213012695312 0
vn 1 0 0
vn 0 1 0
vn -0.7363275289535522 0.6766252517700195 0
vn -0.736423134803772 0.6765213012695312 0
vn -0.7363275289535522 0.6766252517700195 0
vn -0.736423134803772 0.6765213012695312 0
vn -1 0 0
vn 0 0 1
vn 0 -1 0
vn 1 0 0
vn 0 -1 0
vn 0 -1 0
vn -1 0 0
vn -0.736423134803772 0.6765213012695312 0
vn -1 0 0
vn 0 -1 0
vn 0 -1 0
vn 1 0 0
vn 0.736423134803772 0.6765213012695312 0
vn 1 0 0
vn 0 0 -1
vn 0 -1 0
vn -1 0 0
vn 0 0 -1
vn 0 0.8981949687004089 -0.4395975172519684
vn -1 0 0
vn 0 0 -1
vn 0 -1 0
vn 1 0 0
vn 0 0 -1
vn 0 0.8981949687004089 -0.4395975172519684
vn 1 0 0
vn 0 0 1
vn 0 -1 0
vn -1 0 0
vn 0 0 1
vn 0 0.8981949687004089 0.4395975172519684
vn -1 0 0
vn 0 0 1
vn 0 -1 0
vn 1 0 0
vn 0 0 1
vn 0 0.8981949687004089 0.4395975172519684
vn 1 0 0
vn 0 -1 0
vn 1 0 0
vn 0 0.8981949687004089 0.4395975172519684
vn 0 0.8981949687004089 -0.4395975172519684
vn 1 0 0
vn 0 -1 0
vn -1 0 0
vn 0 0.8981949687004089 0.4395975172519684
vn 0 0.8981949687004089 -0.4395975172519684
vn -1 0 0
vn 0 0 1
vn 0 -1 0
vn -0.3551967740058899 -0.9347915649414062 0
vn -0.6577925682067871 0.23009739816188812 0.7171918749809265
vn -0.8427896499633789 -0.380595326423645 0.380595326423645
vn -0.9113706946372986 -0.411586731672287 0
vn -1 0 0
vn -0.6577925682067871 0.23009739816188812 0.7171918749809265
vn -0.8427896499633789 -0.380595326423645 0.380595326423645
vn -1 0 0
vn -0.3551967740058899 -0.9347915649414062 0
vn -0.6577925682067871 0.23009739816188812 0.7171918749809265
vn -0.8427896499633789 -0.380595326423645 0.380595326423645
vn -0.9113706946372986 -0.411586731672287 0
vn 0.8427896499633789 -0.380595326423645 0.380595326423645
vn 0.9113706946372986 -0.411586731672287 0
vn 1 0 0
vn 0 0 1
vn 0 -1 0
vn 0.3551967740058899 -0.9347915649414062 0
vn 0.6577925682067871 0.23009739816188812 0.7171918749809265
vn 0.6577925682067871 0.23009739816188812 0.7171918749809265
vn 0.8427896499633789 -0.380595326423645 0.380595326423645
vn 1 0 0
vn 0.3551967740058899 -0.9347915649414062 0
vn 0.6577925682067871 0.23009739816188812 0.7171918749809265
vn 0.8427896499633789 -0.380595326423645 0.380595326423645
vn 0.9113706946372986 -0.411586731672287 0
vn 0 0 1
vn -0.9113706946372986 -0.411586731672287 0
vn -1 0 0
vn 0 0 1
vn 0 -1 0
vn -0.3551967740058899 -0.9347915649414062 0
vn 0 0 1
vn -0.3551967740058899 -0.9347915649414062 0
vn -0.9113706946372986 -0.411586731672287 0
vn 0 0 1
vn 0 -1 0
vn 0.3551967740058899 -0.9347915649414062 0
vn 0 0 1
vn 0.9113706946372986 -0.411586731672287 0
vn 1 0 0
vn 0 0 1
vn 0.3551967740058899 -0.9347915649414062 0
vn 0.9113706946372986 -0.411586731672287 0
vt 0.510405421257019 -0.3671703338623047
vt 0.07815951853990555 -0.17183256149291992
vt 0.46489280462265015 -0.3671703338623047
vt 0.6883206367492676 -0.3039870262145996
vt 0.22112230956554413 -0.14118754863739014
vt 0.46489280462265015 -0.48282235860824585
vt 0.6883205771446228 -0.18833500146865845
vt 0.22112230956554413 -0.09567493200302124
vt 0.510405421257019 -0.48282235860824585
vt 0.07815952599048615 -0.2874845862388611
vt 0.1934104859828949 -0.17183250188827515
vt 0.10295213758945465 -0.17183256149291992
vt 0.3382948338985443 -0.32524698972702026
vt 0.8970818519592285 -0.35181379318237305
vt 0.8903700113296509 -0.35181379318237305
vt 0.20012225210666656 -0.17183250188827515
vt 0.3103209435939789 -0.32524698972702026
vt 0.8970818519592285 -0.3322404623031616
vt 0.3702348470687866 -0.22985947132110596
vt 0.7131132483482361 -0.3039870262145996
vt 0.8903700113296509 -0.3322404623031616
vt 0.3769465982913971 -0.22985947132110596
vt 0.579985499382019 -0.15698742866516113
vt 0.3103209435939789 -0.21836435794830322
vt 0.8970818519592285 -0.22535783052444458
vt 0.24591492116451263 -0.14118754863739014
vt 0.6592058539390564 -0.20950853824615479
vt 0.37023481726646423 -0.1142074465751648
vt 0.7131131887435913 -0.18833500146865845
vt 0.6659176349639893 -0.20694005489349365
vt 0.5732736587524414 -0.16318833827972412
vt 0.8903700113296509 -0.2191569209098816
vt 0.3769465982913971 -0.11677592992782593
vt 0.579985499382019 -0.1290135383605957
vt 0.3382948040962219 -0.21836435794830322
vt 0.8970818519592285 -0.4586964249610901
vt 0.24591492116451263 -0.09567493200302124
vt 0.6592058539390564 -0.1639959216117859
vt 0.1934105008840561 -0.2874845266342163
vt 0.10295214504003525 -0.2874845862388611
vt 0.6659176349639893 -0.16656440496444702
vt 0.5732736587524414 -0.12281262874603271
vt 0.8903700709342957 -0.4648973345756531
vt 0.20012226700782776 -0.2849160432815552
vt 0.39651986956596375 -0.3647160530090332
vt 0.22112232446670532 -0.4828224182128906
vt 0.617752194404602 -0.9902133941650391
vt 0.39651989936828613 -0.24935704469680786
vt 0.39651989936828613 -0.4828224182128906
vt 0.5091404914855957 -0.9438172578811646
vt 0.44531944394111633 -0.3647160530090332
vt 0.2699218988418579 -0.4828224182128906
vt 0.291389524936676 -0.5023956298828125
vt 0.4453194737434387 -0.24935704469680786
vt 0.4453194737434387 -0.4828224182128906
vt 0.18277782201766968 -0.548791766166687
vt 0.3382948040962219 -0.3448202610015869
vt 0.22112230956554413 -0.3218551278114319
vt 0.6429386138916016 -0.8312287330627441
vt 0.3382948040962219 -0.4828224182128906
vt 0.5787783265113831 -0.26124322414398193
vt 0.5091404914855957 -0.7974258661270142
vt 0.28949519991874695 -0.3448203206062317
vt 0.2699218988418579 -0.3218551278114319
vt 0.3165759742259979 -0.6613802909851074
vt 0.28949522972106934 -0.4828224182128906
vt 0.5299787521362305 -0.26124322414398193
vt 0.18277783691883087 -0.6951831579208374
vt 0.39651989936828613 -0.34514278173446655
vt 0.639632523059845 -0.1607089638710022
vt 0.4183366894721985 -0.9133284091949463
vt 0.4453195035457611 -0.34514278173446655
vt 0.639632523059845 -0.20950853824615479
vt 0.09197403490543365 -0.57928067445755
vt 0.5787783265113831 -0.3576802611351013
vt 0.26680701971054077 -0.20956045389175415
vt 0.4183366894721985 -0.7649486064910889
vt 0.5299787521362305 -0.3576802611351013
vt 0.26680701971054077 -0.16076087951660156
vt 0.09197404980659485 -0.7276604175567627
vt 0.009786655195057392 -0.2179747223854065
vt 0.3103209137916565 -0.14999139308929443
vt 0.37395966053009033 -0.9716549515724182
vt 0.058586232364177704 -0.2179747223854065
vt 0.3103209137916565 -0.19879096746444702
vt 0.0475970134139061 -0.5209541320800781
vt 0.009786661714315414 -0.2874845266342163
vt 0.8194850087165833 -0.14580237865447998
vt 0.33614930510520935 -0.9133284091949463
vt 0.0585862398147583 -0.2874845266342163
vt 0.8682845830917358 -0.14580237865447998
vt 0.009786652401089668 -0.57928067445755
vt 0.8194850087165833 -0.32334548234939575
vt 0.33614930510520935 -0.7357853651046753
vt 0.8682845830917358 -0.32334548234939575
vt 0.009786665439605713 -0.756823718547821
vt 0.12252549082040787 -0.20753628015518188
vt 0.8194850087165833 -0.5567350387573242
vt 0.33614927530288696 -0.502395749092102
vt 0.12252548336982727 -0.1587367057800293
vt 0.8682846426963806 -0.5567350387573242
vt 0.00978668313473463 -0.9902133345603943
vt 0.9258670210838318 -0.4006134271621704
vt 0.22112232446670532 -0.20956045389175415
vt 0.3976810574531555 -0.050971388816833496
vt 0.3831635117530823 -0.7357853651046753
vt 0.3831713795661926 -0.7357853651046753
vt 0.6001532673835754 -0.1607089638710022
vt 0.3478190004825592 -0.14999139308929443
vt 0.3861539959907532 -0.9361950755119324
vt 0.6001533269882202 -0.20950853824615479
vt 0.3478190004825592 -0.19879096746444702
vt 0.05979134514927864 -0.556414008140564
vt 0.9258591532707214 -0.3518138527870178
vt 0.22112230956554413 -0.16076087951660156
vt 0.13758382201194763 -0.04950761795043945
vt 0.056808747351169586 -0.756823718547821
vt 0.03602037951350212 -0.13973647356033325
vt 0.09588118642568588 -0.48282235860824585
vt 0.7589202523231506 -0.1761661171913147
vt 0.05133606866002083 -0.4700368642807007
vt 0.009786653332412243 -0.13973647356033325
vt 0.2015490084886551 -0.3070577383041382
vt 0.7326865196228027 -0.1761661171913147
vt 0.15700389444828033 -0.3198432922363281
vt 0.03602038323879242 -0.19840145111083984
vt 0.6868794560432434 -0.1687617301940918
vt 0.09332407265901566 -0.424213171005249
vt 0.7589202523231506 -0.1187945008277893
vt 0.5274665951728821 -0.1123659610748291
vt 0.08585696667432785 -0.424213171005249
vt 0.00978665892034769 -0.19840145111083984
vt 0.7131131887435913 -0.1687617301940918
vt 0.19899190962314606 -0.365666925907135
vt 0.7326865196228027 -0.1187945008277893
vt 0.55370032787323 -0.1123659610748291
vt 0.19152480363845825 -0.365666925907135
vt 0.8457186818122864 -0.09531688690185547
vt 0.6868794560432434 -0.117939293384552
vt 0.09332407265901566 -0.37339073419570923
vt 0.7096927762031555 -0.07213222980499268
vt 0.5274665951728821 -0.1631883978843689
vt 0.08585696667432785 -0.37339073419570923
vt 0.8194849491119385 -0.09531688690185547
vt 0.7131131887435913 -0.117939293384552
vt 0.19899190962314606 -0.4164894223213196
vt 0.7096927762031555 -0.0983659029006958
vt 0.55370032787323 -0.1631883978843689
vt 0.19152480363845825 -0.4164894223213196
vt 0.7559905648231506 -0.09922122955322266
vt 0.8457186818122864 -0.1262291669845581
vt 0.07638325542211533 -0.3475338816642761
vt 0.545159101486206 -0.06655889749526978
vt 0.6868795156478882 -0.07213222980499268
vt 0.07019469887018204 -0.35680335760116577
vt 0.7559905648231506 -0.07298755645751953
vt 0.8194849491119385 -0.1262291669845581
vt 0.18205110728740692 -0.4423462748527527
vt 0.545159101486206 -0.09279263019561768
vt 0.6868795156478882 -0.09836596250534058
vt 0.17586253583431244 -0.43307673931121826
vt 0.7326865196228027 -0.09922122955322266
vt 0.9149854183197021 -0.11069178581237793
vt 0.05325740948319435 -0.34465712308883667
vt 0.5274665951728821 -0.06655889749526978
vt 0.421135276556015 -0.08931547403335571
vt 0.05325741320848465 -0.3516891598701477
vt 0.7326865196228027 -0.07298755645751953
vt 0.9149854183197021 -0.08445805311203003
vt 0.15892525017261505 -0.44522297382354736
vt 0.5274665951728821 -0.09279263019561768
vt 0.421135276556015 -0.11554920673370361
vt 0.15892525017261505 -0.43819093704223633
vt 0.8903700113296509 -0.11069178581237793
vt 0.6592450737953186 -0.1036531925201416
vt 0.029284566640853882 -0.33906984329223633
vt 0.39651989936828613 -0.08931547403335571
vt 0.3769465684890747 -0.0684003233909607
vt 0.029284566640853882 -0.3572764992713928
vt 0.8903700113296509 -0.08445805311203003
vt 0.6330113410949707 -0.1036531925201416
vt 0.13495241105556488 -0.4508103132247925
vt 0.39651989936828613 -0.11554920673370361
vt 0.3769465684890747 -0.0946340560913086
vt 0.13495241105556488 -0.432603657245636
vt 0.6592450737953186 -0.14113575220108032
vt 0.009786650538444519 -0.30705779790878296
vt 0.009786656126379967 -0.38573700189590454
vt 0.6330113410949707 -0.14113575220108032
vt 0.11545450240373611 -0.48282235860824585
vt 0.11545449495315552 -0.40414315462112427
vt 0.6592450737953186 -0.12239444255828857
vt 0.019535599276423454 -0.32306379079818726
vt 0.35809144377708435 -0.0684003233909607
vt 0.39651989936828613 -0.1351223587989807
vt 0.019535603001713753 -0.3734157085418701
vt 0.6330113410949707 -0.12239444255828857
vt 0.1252034455537796 -0.46681636571884155
vt 0.35809144377708435 -0.0946340560913086
vt 0.42275363206863403 -0.1351223587989807
vt 0.1252034455537796 -0.4164644479751587
vt 0.8556986451148987 -0.04950988292694092
vt 0.009786662645637989 -0.46807706356048584
vt 0.8556986451148987 -0.07574361562728882
vt 0.11545448750257492 -0.32180309295654297
vt 0.8654476404190063 -0.04950988292694092
vt 0.39651989936828613 -0.22978371381759644
vt 0.01953561045229435 -0.46807706356048584
vt 0.8654476404190063 -0.07574361562728882
vt 0.42275363206863403 -0.22978371381759644
vt 0.1252034306526184 -0.32180309295654297
vt 0.8903700709342957 -0.13026505708694458
vt 0.6001532673835754 -0.14113569259643555
vt 0.6605607271194458 -0.23291128873825073
vt 0.8903700709342957 -0.19958364963531494
vt 0.2787729799747467 -0.1411876082420349
vt 0.6605607271194458 -0.3022298216819763
vt 0.9036547541618347 -0.13026505708694458
vt 0.6134380102157593 -0.14113569259643555
vt 0.22112230956554413 -0.2329632043838501
vt 0.9036547541618347 -0.19958364963531494
vt 0.26548826694488525 -0.1411876082420349
vt 0.22112230956554413 -0.3022817373275757
vt 0.9299399256706238 -0.2248835563659668
vt 0.6001532673835754 -0.08060693740844727
vt 0.6001532077789307 -0.22908180952072144
vt 0.2787729799747467 -0.0796007513999939
vt 0.93651282787323 -0.19958359003067017
vt 0.6001532673835754 -0.29023516178131104
vt 0.9166552424430847 -0.2248835563659668
vt 0.6134380102157593 -0.08060693740844727
vt 0.28152981400489807 -0.2291337251663208
vt 0.26548826694488525 -0.0796007513999939
vt 0.9232280850410461 -0.19958359003067017
vt 0.28152981400489807 -0.2902870774269104
vt 0.8903700709342957 -0.16075825691223145
vt 0.6605607271194458 -0.2634044885635376
vt 0.9036547541618347 -0.16075825691223145
vt 0.22112230956554413 -0.26345640420913696
vt 0.9166552424430847 -0.26135534048080444
vt 0.9232280850410461 -0.1682010293006897
vt 0.26687973737716675 -0.26253384351730347
vt 0.9299399256706238 -0.26135534048080444
vt 0.93651282787323 -0.1682010293006897
vt 0.6148033142089844 -0.2624819278717041
vt 0.1802401840686798 -0.15225917100906372
vt 0.9166551828384399 -0.4400688409805298
vt 0.6790584921836853 -0.3739842176437378
vt 0.6528934240341187 -0.06362837553024292
vt 0.7983757257461548 -0.1761661171913147
vt 0.7025145888328552 -0.3762357831001282
vt 0.20012229681015015 -0.15225917100906372
vt 0.9166551828384399 -0.42018669843673706
vt 0.5640335083007812 -0.4276774525642395
vt 0.6330113410949707 -0.06362837553024292
vt 0.7784936428070068 -0.1761661171913147
vt 0.5405773520469666 -0.42992907762527466
vt 0.1975889354944229 -0.0766977071762085
vt 0.180240198969841 -0.09627103805541992
vt 0.6625120043754578 -0.4274713397026062
vt 0.18024016916751862 -0.0766977071762085
vt 0.7983757257461548 -0.11859440803527832
vt 0.6797813773155212 -0.42912906408309937
vt 0.1975889354944229 -0.05681562423706055
vt 0.20012229681015015 -0.09627103805541992
vt 0.5805799961090088 -0.4811646342277527
vt 0.18024016916751862 -0.05681562423706055
vt 0.7784936428070068 -0.11859440803527832
vt 0.5633106231689453 -0.48282235860824585
vt 0.7983757257461548 -0.09902113676071167
vt 0.9350787997245789 -0.4400688409805298
vt 0.6808189153671265 -0.3556448817253113
vt 0.009786655195057392 -0.12016308307647705
vt 0.6528934240341187 -0.0840798020362854
vt 0.7131132483482361 -0.35874491930007935
vt 0.7784936428070068 -0.09902113676071167
vt 0.9350787997245789 -0.42018669843673706
vt 0.5622730851173401 -0.40933817625045776
vt 0.029668761417269707 -0.12016308307647705
vt 0.6330113410949707 -0.0840798020362854
vt 0.5299787521362305 -0.41243815422058105
vt 0.04924207925796509 -0.12016314268112183
vt 0.7983757257461548 -0.0738874077796936
vt 0.6672397255897522 -0.3344951868057251
vt 0.009786652401089668 -0.08408546447753906
vt 0.8194849491119385 -0.055861473083496094
vt 0.6849510073661804 -0.33619534969329834
vt 0.04924207925796509 -0.1002810001373291
vt 0.7784936428070068 -0.0738874077796936
vt 0.5758522748947144 -0.3881884813308716
vt 0.029668757691979408 -0.08408546447753906
vt 0.8194849491119385 -0.07574355602264404
vt 0.5581409931182861 -0.38988858461380005
vt 0.947661817073822 -0.04592019319534302
vt 0.05602312833070755 -0.12016314268112183
vt 0.6625120043754578 -0.32963401079177856
vt 0.836125373840332 -0.05586141347885132
vt 0.9345587491989136 -0.04592019319534302
vt 0.6741223335266113 -0.32356029748916626
vt 0.947661817073822 -0.06580227613449097
vt 0.05602312460541725 -0.1002810001373291
vt 0.5805799961090088 -0.38332730531692505
vt 0.836125373840332 -0.07574355602264404
vt 0.9345587491989136 -0.06580227613449097
vt 0.5689696073532104 -0.37725359201431274
vt 0.5774358510971069 -0.061117351055145264
vt 0.4789714515209198 -0.09463417530059814
vt 0.4450160562992096 -0.06974202394485474
vt 0.5647324323654175 -0.061117351055145264
vt 0.8903700113296509 -0.05080604553222656
vt 0.43231263756752014 -0.06974202394485474
vt 0.5774358510971069 -0.09279263019561768
vt 0.4789714515209198 -0.06295889616012573
vt 0.9359315633773804 -0.13454902172088623
vt 0.5647324323654175 -0.09279263019561768
vt 0.02034507505595684 -0.050433576107025146
vt 0.9232280850410461 -0.13454902172088623
vt 0.08942186087369919 -0.08634209632873535
vt 0.46489280462265015 -0.09463417530059814
vt 0.4450160562992096 -0.055663347244262695
vt 0.07671843469142914 -0.08634209632873535
vt 0.8903700113296509 -0.0648847222328186
vt 0.43231263756752014 -0.055663347244262695
vt 0.08942186087369919 -0.05466681718826294
vt 0.46489280462265015 -0.06295889616012573
vt 0.9359315633773804 -0.14862769842147827
vt 0.07671842724084854 -0.05466681718826294
vt 0.02034507691860199 -0.06451225280761719
vt 0.9232280850410461 -0.14862769842147827
vt 0.5774358510971069 -0.0822342038154602
vt 0.4789714515209198 -0.0735173225402832
vt 0.5774358510971069 -0.07167577743530273
vt 0.4789714515209198 -0.08407574892044067
vt 0.5647324323654175 -0.07167577743530273
vt 0.9009284377098083 -0.05080604553222656
vt 0.3442073166370392 -0.11633944511413574
vt 0.5647324323654175 -0.0822342038154602
vt 0.009786653332412243 -0.050433576107025146
vt 0.9454401731491089 -0.3669469356536865
vt 0.08942186087369919 -0.07578366994857788
vt 0.46489280462265015 -0.08407574892044067
vt 0.08942186087369919 -0.06522524356842041
vt 0.46489280462265015 -0.0735173225402832
vt 0.07671842724084854 -0.06522524356842041
vt 0.009786654263734818 -0.06451225280761719
vt 0.9454401731491089 -0.35286831855773926
vt 0.07671843469142914 -0.07578366994857788
vt 0.9009284377098083 -0.0648847222328186
vt 0.3442073166370392 -0.13041812181472778
vt 0.5710841417312622 -0.061117351055145264
vt 0.43866434693336487 -0.06974202394485474
vt 0.5710841417312622 -0.09279263019561768
vt 0.9295797944068909 -0.13454902172088623
vt 0.08307014405727386 -0.05466681718826294
vt 0.9295798540115356 -0.14862769842147827
vt 0.08307014405727386 -0.08634209632873535
vt 0.43866434693336487 -0.055663347244262695
vt 0.08307014405727386 -0.06522524356842041
vt 0.0504768081009388 -0.06451225280761719
vt 0.9517918825149536 -0.3528682589530945
vt 0.08307014405727386 -0.07578366994857788
vt 0.039918385446071625 -0.06451225280761719
vt 0.3505590260028839 -0.13041812181472778
vt 0.5710841417312622 -0.07167577743530273
vt 0.039918385446071625 -0.050433576107025146
vt 0.3505590260028839 -0.11633944511413574
vt 0.5710841417312622 -0.0822342038154602
vt 0.0504768043756485 -0.050433576107025146
vt 0.9517918825149536 -0.3669469356536865
vt 0.12252547591924667 -0.22710955142974854
vt 0.8194850087165833 -0.9902133345603943
vt 0.6625120639801025 -0.4487023949623108
vt 0.17383721470832825 -0.22710949182510376
vt 0.8707967400550842 -0.9902133345603943
vt 0.7409985065460205 -0.9902133941650391
vt 0.5787783265113831 -0.18276172876358032
vt 0.9166550636291504 -0.3322404623031616
vt 0.6625120043754578 -0.9902133345603943
vt 0.12252546101808548 -0.09635376930236816
vt 0.8903700709342957 -0.4844706058502197
vt 0.9770221710205078 -0.9778014421463013
vt 0.12252547591924667 -0.28748440742492676
vt 0.13851822912693024 -0.08785170316696167
vt 0.9902130365371704 -0.9902133345603943
vt 0.7214251756668091 -0.4619072675704956
vt 0.12252546101808548 -0.13066130876541138
vt 0.9246776700019836 -0.4844706058502197
vt 0.9574421644210815 -0.9778014421463013
vt 0.17383722960948944 -0.28748440742492676
vt 0.13851822912693024 -0.13916343450546265
vt 0.9442512392997742 -0.9902133345603943
vt 0.7999116778373718 -0.977008581161499
vt 0.3103209137916565 -0.12191599607467651
vt 0.8903701305389404 -0.9884108304977417
vt 0.9770187735557556 -0.47386133670806885
vt 0.5787783265113831 -0.24166995286941528
vt 0.32463395595550537 -0.13041812181472778
vt 0.9902132749557495 -0.4619072675704956
vt 0.7214202880859375 -0.9902133345603943
vt 0.3103209137916565 -0.0876084566116333
vt 0.9246776700019836 -0.9884108304977417
vt 0.957445502281189 -0.47386133670806885
vt 0.9574455618858337 -0.4720587730407715
vt 0.5274665951728821 -0.24166995286941528
vt 0.32463395595550537 -0.07910633087158203
vt 0.9442510604858398 -0.4619072675704956
vt 0.799906849861145 -0.44870245456695557
vt 0.5876962542533875 -0.5159317255020142
vt 0.8707966804504395 -0.5763083696365356
vt 0.7409985661506653 -0.5763084292411804
vt 0.6499624252319336 -0.5159317255020142
vt 0.8194849491119385 -0.5763083696365356
vt 0.6625120043754578 -0.8626073598861694
vt 0.9246776700019836 -0.8727588057518005
vt 0.9574447274208069 -0.5895133018493652
vt 0.9574447274208069 -0.5895133018493652
vt 0.9442510604858398 -0.5895133018493652
vt 0.9442510604858398 -0.5895133018493652
vt 0.799907922744751 -0.5763084292411804
vt 0.8903701305389404 -0.8727588057518005
vt 0.9770195484161377 -0.5895133018493652
vt 0.9770195484161377 -0.5895133018493652
vt 0.9902132749557495 -0.5895133018493652
vt 0.9902132749557495 -0.5895133018493652
vt 0.7214214205741882 -0.8626073598861694
vt 0.5274665951728821 -0.18276172876358032
vt 0.9166550636291504 -0.28092873096466064
vt 0.7409985661506653 -0.44870245456695557
vt 0.6499624252319336 -0.6446630358695984
vt 0.9286090135574341 -0.3322404623031616
vt 0.6625120043754578 -0.9782593846321106
vt 0.9902132153511047 -0.4738612174987793
vt 0.7214204668998718 -0.9782593846321106
vt 0.5876962542533875 -0.6446630358695984
vt 0.9286090135574341 -0.28092873096466064
vt 0.7409985661506653 -0.46065640449523926
vt 0.9442511200904846 -0.4738612174987793
vt 0.7999070286750793 -0.46065640449523926
vt 0.2719956338405609 -0.052017927169799805
vt 0.4985448122024536 -0.09463411569595337
vt 0.22112229466438293 -0.050785601139068604
vt 0.26548823714256287 -0.052017927169799805
vt 0.9454401731491089 -0.3865202069282532
vt 0.22762969136238098 -0.050785601139068604
vt 0.2719956338405609 -0.06002753973007202
vt 0.5065544247627258 -0.09463411569595337
vt 0.9345588088035583 -0.11069172620773315
vt 0.26548823714256287 -0.06002753973007202
vt 0.9534497857093811 -0.3865202069282532
vt 0.9410662055015564 -0.11069172620773315
vt 0.31682828068733215 -0.05953305959701538
vt 0.4985448122024536 -0.06931799650192261
vt 0.22112229466438293 -0.07610172033309937
vt 0.3103208839893341 -0.05953305959701538
vt 0.6081628799438477 -0.04694044589996338
vt 0.22762969136238098 -0.07610172033309937
vt 0.31682828068733215 -0.051523447036743164
vt 0.5065544247627258 -0.06931799650192261
vt 0.9345588088035583 -0.08537560701370239
vt 0.3103208839893341 -0.051523447036743164
vt 0.6001532673835754 -0.04694044589996338
vt 0.9410662055015564 -0.08537560701370239
vt 0.5065544247627258 -0.08197605609893799
vt 0.9345588088035583 -0.09803366661071777
vt 0.6001532673835754 -0.06103360652923584
vt 0.9534497857093811 -0.40061336755752563
vt 0.9472622275352478 -0.09803366661071777
vt 0.4985448122024536 -0.08197605609893799
vt 0.22112229466438293 -0.06344366073608398
vt 0.6081628799438477 -0.06103360652923584
vt 0.9454401731491089 -0.40061336755752563
vt 0.23382572829723358 -0.06344366073608398
vt 0.9166553020477295 -0.3857528567314148
vt 0.35786810517311096 -0.48282235860824585
vt 0.5072136521339417 -0.34759700298309326
vt 0.3965199589729309 -0.0637022852897644
vt 0.41273942589759827 -0.06974208354949951
vt 0.7326865196228027 -0.42912906408309937
vt 0.3590991199016571 -0.7357853651046753
vt 0.4127393960952759 -0.050690650939941406
vt 0.4127393960952759 -0.050690650939941406
vt 0.37395966053009033 -0.7506458759307861
vt 0.4958398640155792 -0.34759700298309326
vt 0.4041370749473572 -0.06317174434661865
vt 0.4041370749473572 -0.06317174434661865
vt 0.7440602779388428 -0.42912906408309937
vt 0.12252547591924667 -0.06827837228775024
vt 0.763633668422699 -0.1957395076751709
vt 0.03273649141192436 -0.756823718547821
vt 0.9166553020477295 -0.36667436361312866
vt 0.3769465982913971 -0.48282235860824585
vt 0.46489280462265015 -0.34759700298309326
vt 0.13874492049217224 -0.06223857402801514
vt 0.12252547591924667 -0.04922693967819214
vt 0.12252547591924667 -0.04922693967819214
vt 0.04759702831506729 -0.7419631481170654
vt 0.4762665629386902 -0.34759700298309326
vt 0.13112781941890717 -0.06170797348022461
vt 0.13112781941890717 -0.06170797348022461
vt 0.7750074863433838 -0.1957395076751709
vt 0.14547531306743622 -0.20753628015518188
vt 0.732686460018158 -0.19573944807052612
vt 0.3590990900993347 -0.502395749092102
vt 0.16033585369586945 -0.19267570972442627
vt 0.35786810517311096 -0.2494327425956726
vt 0.5072136521339417 -0.11420738697052002
vt 0.15598329901695251 -0.20318371057510376
vt 0.4958398640155792 -0.11420738697052002
vt 0.7440602779388428 -0.19573944807052612
vt 0.16033585369586945 -0.17359721660614014
vt 0.3769465982913971 -0.2494327425956726
vt 0.46489280462265015 -0.11420738697052002
vt 0.14547531306743622 -0.1587367057800293
vt 0.7636337280273438 -0.42912912368774414
vt 0.032736510038375854 -0.9902133345603943
vt 0.15598329901695251 -0.16308927536010742
vt 0.4762665629386902 -0.11420738697052002
vt 0.7750074863433838 -0.42912912368774414
usemtl M_Colt1911
f 8/8/8 5/5/5 26/26/26
f 8/8/8 26/26/26 37/37/37
f 7/7/7 4/4/4 20/20/20
f 7/7/7 20/20/20 29/29/29
f 2/2/2 10/10/10 40/40/40
f 2/2/2 40/40/40 12/12/12
f 9/9/9 1/1/1 3/3/3
f 9/9/9 3/3/3 6/6/6
f 36/36/36 14/14/14 15/15/15
f 36/36/36 15/15/15 43/43/43
f 44/44/44 16/16/16 11/11/11
f 44/44/44 11/11/11 39/39/39
f 18/18/18 25/25/25 32/32/32
f 18/18/18 32/32/32 21/21/21
f 22/22/22 33/33/33 28/28/28
f 22/22/22 28/28/28 19/19/19
f 38/38/38 27/27/27 30/30/30
f 38/38/38 30/30/30 41/41/41
f 42/42/42 31/31/31 23/23/23
f 42/42/42 23/23/23 34/34/34
f 13/13/13 35/35/35 24/24/24
f 13/13/13 24/24/24 17/17/17
f 45/45/45 49/49/49 55/55/55
f 45/45/45 55/55/55 51/51/51
f 53/53/53 56/56/56 68/68/68
f 53/53/53 68/68/68 65/65/65
f 63/63/63 66/66/66 60/60/60
f 63/63/63 60/60/60 57/57/57
f 59/59/59 62/62/62 50/50/50
f 59/59/59 50/50/50 47/47/47
f 52/52/52 64/64/64 58/58/58
f 52/52/52 58/58/58 46/46/46
f 61/61/61 67/67/67 78/78/78
f 61/61/61 78/78/78 75/75/75
f 103/103/103 114/114/114 490/490/490
f 103/103/103 490/490/490 473/473/473
f 54/54/54 48/48/48 69/69/69
f 54/54/54 69/69/69 72/72/72
f 50/50/50 62/62/62 77/77/77
f 50/50/50 77/77/77 71/71/71
f 68/68/68 56/56/56 74/74/74
f 68/68/68 74/74/74 80/80/80
f 117/117/117 113/113/113 86/86/86
f 117/117/117 86/86/86 496/496/496
f 501/501/501 513/513/513 100/100/100
f 501/501/501 100/100/100 97/97/97
f 83/83/83 482/482/482 479/479/479
f 83/83/83 479/479/479 89/89/89
f 112/112/112 109/109/109 82/82/82
f 112/112/112 82/82/82 85/85/85
f 95/95/95 91/91/91 88/88/88
f 95/95/95 88/88/88 93/93/93
f 84/84/84 81/81/81 87/87/87
f 84/84/84 87/87/87 90/90/90
f 94/94/94 479/479/479 503/503/503
f 94/94/94 503/503/503 99/99/99
f 489/489/489 96/96/96 102/102/102
f 489/489/489 102/102/102 515/515/515
f 95/95/95 93/93/93 98/98/98
f 95/95/95 98/98/98 101/101/101
f 110/110/110 106/106/106 482/482/482
f 110/110/110 482/482/482 83/83/83
f 489/489/489 92/92/92 96/96/96
f 73/73/73 70/70/70 108/108/108
f 73/73/73 108/108/108 111/111/111
f 76/76/76 79/79/79 115/115/115
f 76/76/76 115/115/115 104/104/104
f 80/80/80 74/74/74 113/113/113
f 80/80/80 113/113/113 117/117/117
f 71/71/71 77/77/77 107/107/107
f 71/71/71 107/107/107 110/110/110
f 123/123/123 125/125/125 137/137/137
f 123/123/123 137/137/137 134/134/134
f 127/127/127 133/133/133 145/145/145
f 127/127/127 145/145/145 139/139/139
f 128/128/128 131/131/131 121/121/121
f 128/128/128 121/121/121 119/119/119
f 122/122/122 132/132/132 126/126/126
f 122/122/122 126/126/126 118/118/118
f 135/135/135 124/124/124 120/120/120
f 135/135/135 120/120/120 129/129/129
f 147/147/147 141/141/141 154/154/154
f 147/147/147 154/154/154 160/160/160
f 136/136/136 130/130/130 142/142/142
f 136/136/136 142/142/142 148/148/148
f 134/134/134 137/137/137 149/149/149
f 134/134/134 149/149/149 146/146/146
f 131/131/131 128/128/128 140/140/140
f 131/131/131 140/140/140 143/143/143
f 155/155/155 152/152/152 164/164/164
f 155/155/155 164/164/164 167/167/167
f 146/146/146 149/149/149 161/161/161
f 146/146/146 161/161/161 158/158/158
f 143/143/143 140/140/140 152/152/152
f 143/143/143 152/152/152 155/155/155
f 138/138/138 144/144/144 157/157/157
f 138/138/138 157/157/157 151/151/151
f 172/172/172 166/166/166 177/177/177
f 172/172/172 177/177/177 183/183/183
f 150/150/150 156/156/156 168/168/168
f 150/150/150 168/168/168 162/162/162
f 159/159/159 153/153/153 165/165/165
f 159/159/159 165/165/165 171/171/171
f 158/158/158 161/161/161 173/173/173
f 158/158/158 173/173/173 170/170/170
f 196/196/196 193/193/193 187/187/187
f 196/196/196 187/187/187 188/188/188
f 170/170/170 173/173/173 185/185/185
f 170/170/170 185/185/185 182/182/182
f 167/167/167 164/164/164 176/176/176
f 167/167/167 176/176/176 179/179/179
f 163/163/163 169/169/169 180/180/180
f 163/163/163 180/180/180 174/174/174
f 192/192/192 197/197/197 189/189/189
f 192/192/192 189/189/189 186/186/186
f 198/198/198 201/201/201 191/191/191
f 198/198/198 191/191/191 190/190/190
f 182/182/182 185/185/185 201/201/201
f 182/182/182 201/201/201 198/198/198
f 184/184/184 178/178/178 194/194/194
f 184/184/184 194/194/194 199/199/199
f 175/175/175 181/181/181 197/197/197
f 175/175/175 197/197/197 192/192/192
f 179/179/179 176/176/176 193/193/193
f 179/179/179 193/193/193 196/196/196
f 209/209/209 206/206/206 202/202/202
f 209/209/209 202/202/202 204/204/204
f 200/200/200 195/195/195 207/207/207
f 200/200/200 207/207/207 210/210/210
f 191/191/191 201/201/201 211/211/211
f 191/191/191 211/211/211 205/205/205
f 196/196/196 188/188/188 203/203/203
f 196/196/196 203/203/203 208/208/208
f 236/236/236 215/215/215 221/221/221
f 236/236/236 221/221/221 238/238/238
f 239/239/239 223/223/223 235/235/235
f 239/239/239 235/235/235 242/242/242
f 241/241/241 234/234/234 228/228/228
f 241/241/241 228/228/228 244/244/244
f 245/245/245 229/229/229 217/217/217
f 245/245/245 217/217/217 237/237/237
f 219/219/219 231/231/231 225/225/225
f 219/219/219 225/225/225 213/213/213
f 233/233/233 222/222/222 216/216/216
f 233/233/233 216/216/216 227/227/227
f 226/226/226 245/245/245 237/237/237
f 226/226/226 237/237/237 214/214/214
f 230/230/230 240/240/240 243/243/243
f 230/230/230 243/243/243 224/224/224
f 220/220/220 239/239/239 242/242/242
f 220/220/220 242/242/242 232/232/232
f 212/212/212 236/236/236 238/238/238
f 212/212/212 238/238/238 218/218/218
f 257/257/257 254/254/254 278/278/278
f 257/257/257 278/278/278 281/281/281
f 254/254/254 257/257/257 269/269/269
f 254/254/254 269/269/269 266/266/266
f 264/264/264 267/267/267 261/261/261
f 264/264/264 261/261/261 258/258/258
f 260/260/260 263/263/263 251/251/251
f 260/260/260 251/251/251 248/248/248
f 252/252/252 265/265/265 259/259/259
f 252/252/252 259/259/259 246/246/246
f 268/268/268 256/256/256 250/250/250
f 268/268/268 250/250/250 262/262/262
f 273/273/273 279/279/279 291/291/291
f 273/273/273 291/291/291 285/285/285
f 248/248/248 251/251/251 275/275/275
f 248/248/248 275/275/275 272/272/272
f 249/249/249 255/255/255 280/280/280
f 249/249/249 280/280/280 274/274/274
f 253/253/253 247/247/247 271/271/271
f 253/253/253 271/271/271 277/277/277
f 288/288/288 282/282/282 295/295/295
f 288/288/288 295/295/295 301/301/301
f 276/276/276 270/270/270 283/283/283
f 276/276/276 283/283/283 289/289/289
f 281/281/281 278/278/278 290/290/290
f 281/281/281 290/290/290 293/293/293
f 272/272/272 275/275/275 287/287/287
f 272/272/272 287/287/287 284/284/284
f 294/294/294 298/298/298 304/304/304
f 294/294/294 304/304/304 300/300/300
f 293/293/293 290/290/290 302/302/302
f 293/293/293 302/302/302 305/305/305
f 284/284/284 287/287/287 299/299/299
f 284/284/284 299/299/299 296/296/296
f 286/286/286 292/292/292 303/303/303
f 286/286/286 303/303/303 297/297/297
f 367/367/367 337/337/337 315/315/315
f 367/367/367 315/315/315 352/352/352
f 353/353/353 317/317/317 329/329/329
f 353/353/353 329/329/329 355/355/355
f 361/361/361 347/347/347 321/321/321
f 361/361/361 321/321/321 356/356/356
f 357/357/357 323/323/323 311/311/311
f 357/357/357 311/311/311 351/351/351
f 333/333/333 341/341/341 319/319/319
f 333/333/333 319/319/319 307/307/307
f 348/348/348 335/335/335 310/310/310
f 348/348/348 310/310/310 322/322/322
f 328/328/328 316/316/316 338/338/338
f 328/328/328 338/338/338 345/345/345
f 313/313/313 325/325/325 343/343/343
f 313/313/313 343/343/343 331/331/331
f 331/331/331 343/343/343 341/341/341
f 331/331/331 341/341/341 333/333/333
f 354/354/354 327/327/327 344/344/344
f 354/354/354 344/344/344 358/358/358
f 350/350/350 309/309/309 334/334/334
f 350/350/350 334/334/334 364/364/364
f 332/332/332 364/364/364 367/367/367
f 332/332/332 367/367/367 330/330/330
f 306/306/306 350/350/350 364/364/364
f 306/306/306 364/364/364 332/332/332
f 342/342/342 358/358/358 361/361/361
f 342/342/342 361/361/361 340/340/340
f 324/324/324 354/354/354 358/358/358
f 324/324/324 358/358/358 342/342/342
f 320/320/320 357/357/357 351/351/351
f 320/320/320 351/351/351 308/308/308
f 340/340/340 361/361/361 356/356/356
f 340/340/340 356/356/356 318/318/318
f 314/314/314 353/353/353 355/355/355
f 314/314/314 355/355/355 326/326/326
f 330/330/330 367/367/367 352/352/352
f 330/330/330 352/352/352 312/312/312
f 365/365/365 362/362/362 359/359/359
f 365/365/365 359/359/359 368/368/368
f 349/349/349 363/363/363 366/366/366
f 349/349/349 366/366/366 336/336/336
f 346/346/346 339/339/339 369/369/369
f 346/346/346 369/369/369 360/360/360
f 414/414/414 387/387/387 380/380/380
f 414/414/414 380/380/380 420/420/420
f 426/426/426 404/404/404 396/396/396
f 426/426/426 396/396/396 376/376/376
f 370/370/370 382/382/382 389/389/389
f 370/370/370 389/389/389 373/373/373
f 436/436/436 438/438/438 407/407/407
f 436/436/436 407/407/407 428/428/428
f 379/379/379 386/386/386 390/390/390
f 379/379/379 390/390/390 383/383/383
f 403/403/403 406/406/406 437/437/437
f 400/400/400 393/393/393 397/397/397
f 400/400/400 397/397/397 405/405/405
f 421/421/421 381/381/381 384/384/384
f 421/421/421 384/384/384 423/423/423
f 413/413/413 425/425/425 385/385/385
f 413/413/413 385/385/385 372/372/372
f 431/431/431 433/433/433 425/425/425
f 431/431/431 425/425/425 413/413/413
f 395/395/395 422/422/422 424/424/424
f 395/395/395 424/424/424 432/432/432
f 388/388/388 415/415/415 417/417/417
f 388/388/388 417/417/417 391/391/391
f 375/375/375 392/392/392 419/419/419
f 375/375/375 419/419/419 410/410/410
f 374/374/374 409/409/409 412/412/412
f 374/374/374 412/412/412 371/371/371
f 401/401/401 414/414/414 420/420/420
f 401/401/401 420/420/420 394/394/394
f 435/435/435 427/427/427 377/377/377
f 435/435/435 377/377/377 430/430/430
f 395/395/395 432/432/432 398/398/398
f 378/378/378 399/399/399 433/433/433
f 378/378/378 433/433/433 431/431/431
f 416/416/416 402/402/402 437/437/437
f 416/416/416 437/437/437 418/418/418
f 410/410/410 419/419/419 438/438/438
f 410/410/410 438/438/438 436/436/436
f 439/439/439 442/442/442 448/448/448
f 439/439/439 448/448/448 445/445/445
f 464/464/464 467/467/467 462/462/462
f 464/464/464 462/462/462 459/459/459
f 457/457/457 460/460/460 454/454/454
f 457/457/457 454/454/454 451/451/451
f 469/469/469 472/472/472 444/444/444
f 469/469/469 444/444/444 441/441/441
f 463/463/463 458/458/458 452/452/452
f 463/463/463 452/452/452 468/468/468
f 466/466/466 449/449/449 443/443/443
f 466/466/466 443/443/443 471/471/471
f 461/461/461 465/465/465 470/470/470
f 461/461/461 470/470/470 455/455/455
f 446/446/446 463/463/463 468/468/468
f 446/446/446 468/468/468 440/440/440
f 453/453/453 456/456/456 472/472/472
f 453/453/453 472/472/472 469/469/469
f 447/447/447 450/450/450 467/467/467
f 447/447/447 467/467/467 464/464/464
f 476/476/476 484/484/484 105/105/105
f 484/484/484 480/480/480 105/105/105
f 487/487/487 499/499/499 495/495/495
f 512/512/512 492/492/492 497/497/497
f 512/512/512 497/497/497 517/517/517
f 518/518/518 500/500/500 488/488/488
f 518/518/518 488/488/488 514/514/514
f 502/502/502 478/478/478 486/486/486
f 502/502/502 486/486/486 509/509/509
f 508/508/508 483/483/483 475/475/475
f 508/508/508 475/475/475 506/506/506
f 474/474/474 491/491/491 511/511/511
f 474/474/474 511/511/511 505/505/505
f 434/434/434 429/429/429 411/411/411
f 434/434/434 411/411/411 408/408/408
f 481/481/481 485/485/485 477/477/477
f 494/494/494 498/498/498 116/116/116
f 498/498/498 493/493/493 116/116/116
f 513/513/513 501/501/501 510/510/510
f 513/513/513 510/510/510 516/516/516
f 510/510/510 501/501/501 507/507/507
f 510/510/510 507/507/507 504/504/504
f 89/89/89 479/479/479 94/94/94
f 92/92/92 489/489/489 496/496/496
f 92/92/92 496/496/496 86/86/86
